<mxfile host="app.diagrams.net" modified="2024-05-28T06:25:37.346Z" agent="Mozilla/5.0 (Macintosh; Intel Mac OS X 10_15_7) AppleWebKit/537.36 (KHTML, like Gecko) Chrome/125.0.0.0 Safari/537.36" version="24.4.9" etag="y30jcrzwtxxvedr8hZN9" type="github">
  <diagram name="Page-1" id="9nDzD1eZSI8I8fGPE7Ml">
    <mxGraphModel>
      <root>
        <mxCell id="0" />
        <mxCell id="1" parent="0" />
      </root>
    </mxGraphModel>
  </diagram>
</mxfile>
